<svg width="98" height="18" viewBox="0 0 98 18" fill="none" xmlns="http://www.w3.org/2000/svg">
<path d="M16.4998 0H1.49998C0.671564 0 0 0.671564 0 1.49998V16.4998C0 17.3282 0.671564 17.9998 1.49998 17.9998H16.4998C17.3282 17.9998 17.9998 17.3282 17.9998 16.4998V1.49998C17.9998 0.671564 17.3282 0 16.4998 0Z" fill="#2A89EF"/>
<path fill-rule="evenodd" clip-rule="evenodd" d="M15.0454 6.79554C15.3383 7.08844 15.3383 7.56329 15.0454 7.85619L9.15529 13.7463C8.86239 14.0392 8.38752 14.0392 8.09464 13.7463L3.70452 9.35617C3.41164 9.06327 3.41164 8.58842 3.70452 8.29553L5.2955 6.70455C5.5884 6.41167 6.06325 6.41167 6.35614 6.70455L8.62495 8.97338L12.3937 5.20457C12.6866 4.91169 13.1615 4.91169 13.4544 5.20457L15.0454 6.79554Z" fill="white"/>
<path d="M86.9912 16.13V1.63H90.2712V9.83001L93.8312 5.59001H97.6712L93.9312 9.77L97.8112 16.13H94.0712L91.7312 12.03L90.2712 13.45V16.13H86.9912Z" fill="#080B12"/>
<path d="M80.7292 16.37C80.0359 16.37 79.3826 16.2967 78.7692 16.15C78.1692 16.0033 77.6359 15.79 77.1692 15.51C76.7159 15.23 76.3559 14.8833 76.0892 14.47C75.8359 14.0567 75.7092 13.5767 75.7092 13.03C75.7092 12.9767 75.7092 12.93 75.7092 12.89C75.7092 12.8367 75.7159 12.79 75.7292 12.75H78.8292C78.8292 12.7767 78.8292 12.81 78.8292 12.85C78.8292 12.8767 78.8292 12.9033 78.8292 12.93C78.8426 13.2233 78.9359 13.47 79.1092 13.67C79.2959 13.8567 79.5359 13.9967 79.8292 14.09C80.1226 14.17 80.4426 14.21 80.7892 14.21C81.0426 14.21 81.3092 14.1833 81.5892 14.13C81.8826 14.0767 82.1292 13.9833 82.3292 13.85C82.5292 13.7167 82.6292 13.5233 82.6292 13.27C82.6292 12.99 82.5026 12.7767 82.2492 12.63C82.0092 12.4833 81.6826 12.3633 81.2692 12.27C80.8692 12.1633 80.4359 12.0633 79.9692 11.97C79.5026 11.8633 79.0292 11.7433 78.5492 11.61C78.0826 11.4767 77.6492 11.2967 77.2492 11.07C76.8626 10.83 76.5492 10.5233 76.3092 10.15C76.0692 9.77667 75.9492 9.30334 75.9492 8.73001C75.9492 8.11667 76.0759 7.59667 76.3292 7.17001C76.5959 6.73001 76.9559 6.37667 77.4092 6.11001C77.8626 5.84334 78.3826 5.65001 78.9692 5.53001C79.5692 5.41001 80.2026 5.35001 80.8692 5.35001C81.4826 5.35001 82.0626 5.41001 82.6092 5.53001C83.1692 5.65001 83.6692 5.83667 84.1092 6.09001C84.5626 6.33001 84.9159 6.64334 85.1692 7.03001C85.4226 7.40334 85.5492 7.84334 85.5492 8.35001C85.5492 8.41667 85.5426 8.49001 85.5292 8.57001C85.5292 8.63667 85.5292 8.68334 85.5292 8.71001H82.4492V8.55001C82.4492 8.32334 82.3759 8.13667 82.2292 7.99001C82.0826 7.84334 81.8826 7.73001 81.6292 7.65001C81.3759 7.55667 81.0959 7.51001 80.7892 7.51001C80.5892 7.51001 80.3892 7.53001 80.1892 7.57001C80.0026 7.59667 79.8292 7.64334 79.6692 7.71001C79.5092 7.76334 79.3759 7.84334 79.2692 7.95001C79.1759 8.05667 79.1292 8.19001 79.1292 8.35001C79.1292 8.55001 79.2159 8.71667 79.3892 8.85001C79.5626 8.97001 79.7959 9.07001 80.0892 9.15001C80.3959 9.23001 80.7292 9.31667 81.0892 9.41001C81.5826 9.51667 82.1026 9.63001 82.6492 9.75001C83.1959 9.85667 83.7092 10.0167 84.1892 10.23C84.6826 10.43 85.0759 10.7367 85.3692 11.15C85.6759 11.55 85.8292 12.1033 85.8292 12.81C85.8292 13.4767 85.6959 14.0433 85.4292 14.51C85.1626 14.9633 84.7959 15.33 84.3292 15.61C83.8626 15.8767 83.3226 16.07 82.7092 16.19C82.0959 16.31 81.4359 16.37 80.7292 16.37Z" fill="#080B12"/>
<path d="M67.625 16.37C67.185 16.37 66.7516 16.3233 66.325 16.23C65.9116 16.15 65.5316 16.0033 65.185 15.79C64.8516 15.5633 64.585 15.2567 64.385 14.87C64.185 14.4833 64.085 13.9967 64.085 13.41C64.085 12.65 64.245 12.03 64.565 11.55C64.885 11.07 65.345 10.6967 65.945 10.43C66.5583 10.15 67.2916 9.95667 68.145 9.85001C69.0116 9.74334 69.9783 9.69001 71.045 9.69001V9.03001C71.045 8.72334 70.985 8.47001 70.865 8.27001C70.745 8.05667 70.565 7.89667 70.325 7.79001C70.0983 7.67001 69.7916 7.61001 69.405 7.61001C69.0583 7.61001 68.7516 7.65001 68.485 7.73001C68.2316 7.81001 68.0383 7.93001 67.905 8.09001C67.7716 8.23667 67.705 8.41667 67.705 8.63001V8.81001H64.505C64.4916 8.74334 64.485 8.69001 64.485 8.65001C64.485 8.59667 64.485 8.53001 64.485 8.45001C64.485 7.82334 64.6783 7.27667 65.065 6.81001C65.465 6.34334 66.0316 5.98334 66.765 5.73001C67.4983 5.47667 68.385 5.35001 69.425 5.35001C70.3983 5.35001 71.245 5.47001 71.965 5.71001C72.6983 5.95001 73.2716 6.31667 73.685 6.81001C74.1116 7.30334 74.325 7.95001 74.325 8.75001V13.25C74.325 13.4767 74.385 13.6567 74.505 13.79C74.6383 13.9233 74.7983 13.99 74.985 13.99H75.665V16.01C75.5183 16.0767 75.285 16.15 74.965 16.23C74.6583 16.3233 74.285 16.37 73.845 16.37C73.3916 16.37 72.9916 16.31 72.645 16.19C72.3116 16.0833 72.0316 15.93 71.805 15.73C71.5916 15.5167 71.445 15.27 71.365 14.99H71.225C70.9716 15.2567 70.6716 15.4967 70.325 15.71C69.9916 15.9233 69.5983 16.0833 69.145 16.19C68.705 16.31 68.1983 16.37 67.625 16.37ZM68.845 14.11C69.165 14.11 69.4583 14.0633 69.725 13.97C69.9916 13.8767 70.2183 13.75 70.405 13.59C70.605 13.4167 70.7583 13.21 70.865 12.97C70.985 12.73 71.045 12.47 71.045 12.19V11.49C70.285 11.49 69.6316 11.5433 69.085 11.65C68.5383 11.7567 68.1183 11.9233 67.825 12.15C67.5316 12.3767 67.385 12.6633 67.385 13.01C67.385 13.2633 67.445 13.4767 67.565 13.65C67.6983 13.81 67.8716 13.93 68.085 14.01C68.2983 14.0767 68.5516 14.11 68.845 14.11Z" fill="#080B12"/>
<path d="M57.2903 16.13V5.33H52.8303V2.39H65.3303V5.33H60.8703V16.13H57.2903Z" fill="#080B12"/>
<path d="M46.7951 16.37C45.6217 16.37 44.6151 16.17 43.7751 15.77C42.9484 15.37 42.3084 14.7633 41.8551 13.95C41.4151 13.1233 41.1951 12.09 41.1951 10.85C41.1951 9.61001 41.4151 8.58334 41.8551 7.77001C42.3084 6.95667 42.9484 6.35001 43.7751 5.95001C44.6151 5.55001 45.6217 5.35001 46.7951 5.35001C47.9817 5.35001 48.9884 5.55001 49.8151 5.95001C50.6551 6.35001 51.2951 6.95667 51.7351 7.77001C52.1884 8.58334 52.4151 9.61001 52.4151 10.85C52.4151 12.09 52.1884 13.1233 51.7351 13.95C51.2951 14.7633 50.6551 15.37 49.8151 15.77C48.9884 16.17 47.9817 16.37 46.7951 16.37ZM46.7951 13.99C47.3417 13.99 47.7817 13.8833 48.1151 13.67C48.4617 13.4567 48.7084 13.15 48.8551 12.75C49.0151 12.3367 49.0951 11.83 49.0951 11.23V10.49C49.0951 9.89001 49.0151 9.38334 48.8551 8.97001C48.7084 8.55667 48.4617 8.25001 48.1151 8.05001C47.7817 7.83667 47.3417 7.73001 46.7951 7.73001C46.2617 7.73001 45.8217 7.83667 45.4751 8.05001C45.1417 8.25001 44.8951 8.55667 44.7351 8.97001C44.5884 9.38334 44.5151 9.89001 44.5151 10.49V11.23C44.5151 11.83 44.5884 12.3367 44.7351 12.75C44.8951 13.15 45.1417 13.4567 45.4751 13.67C45.8217 13.8833 46.2617 13.99 46.7951 13.99Z" fill="#080B12"/>
<path d="M32.7065 16.37C30.4932 16.37 28.8065 15.7833 27.6465 14.61C26.4998 13.4367 25.9265 11.65 25.9265 9.25001C25.9265 7.66334 26.2065 6.35001 26.7665 5.31001C27.3398 4.25668 28.1665 3.47001 29.2465 2.95001C30.3398 2.41668 31.6532 2.15001 33.1865 2.15001C34.1065 2.15001 34.9732 2.25668 35.7865 2.47001C36.5998 2.68334 37.3198 3.00334 37.9465 3.43001C38.5732 3.84334 39.0598 4.37001 39.4065 5.01001C39.7532 5.63668 39.9265 6.37668 39.9265 7.23001H36.4065C36.4065 6.87001 36.3265 6.55001 36.1665 6.27001C36.0065 5.97668 35.7798 5.73668 35.4865 5.55001C35.2065 5.35001 34.8798 5.20334 34.5065 5.11001C34.1332 5.00334 33.7398 4.95001 33.3265 4.95001C32.7132 4.95001 32.1665 5.03001 31.6865 5.19001C31.2198 5.35001 30.8332 5.59668 30.5265 5.93001C30.2198 6.26334 29.9865 6.67001 29.8265 7.15001C29.6798 7.63001 29.6065 8.19001 29.6065 8.83001V9.71001C29.6065 10.5633 29.7398 11.2767 30.0065 11.85C30.2732 12.4233 30.6732 12.8567 31.2065 13.15C31.7532 13.43 32.4198 13.57 33.2065 13.57C33.8198 13.57 34.3665 13.4767 34.8465 13.29C35.3398 13.1033 35.7265 12.8367 36.0065 12.49C36.2998 12.13 36.4465 11.7033 36.4465 11.21V11.11H32.7465V8.59001H39.9265V16.13H37.8465L37.5065 14.69C37.0932 15.0633 36.6465 15.3767 36.1665 15.63C35.6998 15.8833 35.1798 16.07 34.6065 16.19C34.0465 16.31 33.4132 16.37 32.7065 16.37Z" fill="#080B12"/>
</svg>
